grf
version=1
nRows=15
nColumns=37
inDegrees=no
endheader
time	ground_force_1_vx	ground_force_1_vy	ground_force_1_vz	ground_force_1_px	ground_force_1_py	ground_force_1_pz	ground_moment_1_mx	ground_moment_1_my	ground_moment_1_mz	ground_force_2_vx	ground_force_2_vy	ground_force_2_vz	ground_force_2_px	ground_force_2_py	ground_force_2_pz	ground_moment_2_mx	ground_moment_2_my	ground_moment_2_mz	ground_force_3_vx	ground_force_3_vy	ground_force_3_vz	ground_force_3_px	ground_force_3_py	ground_force_3_pz	ground_moment_3_mx	ground_moment_3_my	ground_moment_3_mz	ground_force_4_vx	ground_force_4_vy	ground_force_4_vz	ground_force_4_px	ground_force_4_py	ground_force_4_pz	ground_moment_4_mx	ground_moment_4_my	ground_moment_4_mz
      2.27000000	      0.00000000	     -0.00000000	      0.00000000	      0.00000000	      0.00000000	      0.00000000	      0.00000000	      0.00000000	      0.00000000	      4.58812189	     15.22851467	   -322.05087280	   -327.07677986	  -1011.88568073	      0.00000000	      0.00000000	      0.00000000	   1879.25925657	     -4.54874987	    -15.72125967	   -297.92279053	   -277.07828861	   -812.72970496	      0.00000000	      0.00000000	     -0.00000000	  -2616.30159053	      0.00000000	     -0.00000000	      0.00000000	      0.00000000	      0.00000000	      0.00000000	      0.00000000	      0.00000000	      0.00000000
      2.28000000	      0.00000000	     -0.00000000	      0.00000000	      0.00000000	      0.00000000	      0.00000000	      0.00000000	      0.00000000	      0.00000000	      4.05314159	     14.78378391	   -322.90451050	   -326.96854144	  -1013.99656354	      0.00000000	      0.00000000	      0.00000000	   1787.94818775	     -5.17222303	    -15.66980412	   -298.71896362	   -276.94530582	   -811.37572434	      0.00000000	      0.00000000	     -0.00000000	  -2264.80520782	      0.00000000	     -0.00000000	      0.00000000	      0.00000000	      0.00000000	      0.00000000	      0.00000000	      0.00000000	      0.00000000
      2.29000000	      0.00000000	     -0.00000000	      0.00000000	      0.00000000	      0.00000000	      0.00000000	      0.00000000	      0.00000000	      0.00000000	      4.73936176	     15.35640812	   -321.84988403	   -327.17004181	  -1013.47490072	      0.00000000	      0.00000000	      0.00000000	   1886.21937368	     -4.44799413	    -15.16500339	   -298.97180176	   -278.02876541	   -812.30776490	      0.00000000	     -0.00000000	     -0.00000000	  -2541.54898693	      0.00000000	     -0.00000000	      0.00000000	      0.00000000	      0.00000000	      0.00000000	      0.00000000	      0.00000000	      0.00000000
      2.30000000	      0.00000000	     -0.00000000	      0.00000000	      0.00000000	      0.00000000	      0.00000000	      0.00000000	      0.00000000	      0.00000000	      5.04292059	     15.17840290	   -321.28979492	   -327.78800048	  -1012.17159307	      0.00000000	      0.00000000	      0.00000000	   1982.40028129	     -4.67651120	    -15.38049848	   -297.97491455	   -277.54959492	   -813.01816022	      0.00000000	      0.00000000	     -0.00000000	  -2409.45959002	      0.00000000	     -0.00000000	      0.00000000	      0.00000000	      0.00000000	      0.00000000	      0.00000000	      0.00000000	      0.00000000
      2.31000000	      0.00000000	     -0.00000000	      0.00000000	      0.00000000	      0.00000000	      0.00000000	      0.00000000	      0.00000000	      0.00000000	      4.38455534	     15.32696152	   -323.35556030	   -327.59511595	  -1013.47354898	      0.00000000	     -0.00000000	      0.00000000	   1692.14633879	     -4.49899809	    -15.45629462	   -298.82382202	   -277.46844258	   -812.91874416	      0.00000000	      0.00000000	     -0.00000000	  -2488.43825383	      0.00000000	     -0.00000000	      0.00000000	      0.00000000	      0.00000000	      0.00000000	      0.00000000	      0.00000000	      0.00000000
      2.32000000	      0.00000000	     -0.00000000	      0.00000000	      0.00000000	      0.00000000	      0.00000000	      0.00000000	      0.00000000	      0.00000000	      4.90657806	     14.91142178	   -322.80645752	   -327.87507707	  -1012.61985199	      0.00000000	      0.00000000	      0.00000000	   1769.53295357	     -5.01816025	    -15.31783823	   -299.32360840	   -278.12897551	   -811.81480001	      0.00000000	      0.00000000	     -0.00000000	  -2268.45230657	      0.00000000	     -0.00000000	      0.00000000	      0.00000000	      0.00000000	      0.00000000	      0.00000000	      0.00000000	      0.00000000
      2.33000000	      0.00000000	     -0.00000000	      0.00000000	      0.00000000	      0.00000000	      0.00000000	      0.00000000	      0.00000000	      0.00000000	      5.16929960	     15.22786522	   -323.21289062	   -327.76578240	  -1013.25978185	      0.00000000	      0.00000000	      0.00000000	   1795.21056903	     -4.74036116	    -15.74693829	   -301.06408691	   -277.95352234	   -808.74429636	      0.00000000	     -0.00000000	     -0.00000000	  -2354.21937374	      0.00000000	     -0.00000000	      0.00000000	      0.00000000	      0.00000000	      0.00000000	      0.00000000	      0.00000000	      0.00000000
      2.34000000	      0.00000000	     -0.00000000	      0.00000000	      0.00000000	      0.00000000	      0.00000000	      0.00000000	      0.00000000	      0.00000000	      4.59626341	     15.53001213	   -324.38815308	   -328.45394617	  -1014.22124274	      0.00000000	     -0.00000000	      0.00000000	   1742.54453783	     -4.81643052	    -15.79661518	   -300.51705933	   -277.95571275	   -810.34352200	      0.00000000	      0.00000000	     -0.00000000	  -2385.49391480	      0.00000000	     -0.00000000	      0.00000000	      0.00000000	      0.00000000	      0.00000000	      0.00000000	      0.00000000	      0.00000000
      2.35000000	      0.00000000	     -0.00000000	      0.00000000	      0.00000000	      0.00000000	      0.00000000	      0.00000000	      0.00000000	      0.00000000	      4.77631187	     15.37854099	   -323.94827271	   -328.54454502	  -1013.63303582	      0.00000000	      0.00000000	      0.00000000	   1715.21679738	     -4.55051939	    -15.53475340	   -299.67547607	   -278.42050312	   -811.39476751	      0.00000000	      0.00000000	     -0.00000000	  -2493.51079450	      0.00000000	     -0.00000000	      0.00000000	      0.00000000	      0.00000000	      0.00000000	      0.00000000	      0.00000000	      0.00000000
      2.36000000	      0.00000000	     -0.00000000	      0.00000000	      0.00000000	      0.00000000	      0.00000000	      0.00000000	      0.00000000	      0.00000000	      4.61138773	     15.18623066	   -322.31829834	   -328.80651893	  -1011.60919361	      0.00000000	      0.00000000	      0.00000000	   1779.76461942	     -4.23943084	    -15.64610826	   -300.76043701	   -277.07277613	   -809.73938819	      0.00000000	      0.00000000	     -0.00000000	  -2635.23576766	      0.00000000	     -0.00000000	      0.00000000	      0.00000000	      0.00000000	      0.00000000	      0.00000000	      0.00000000	      0.00000000
      2.37000000	      0.00000000	     -0.00000000	      0.00000000	      0.00000000	      0.00000000	      0.00000000	      0.00000000	      0.00000000	      0.00000000	      4.58338356	     15.37792492	   -322.69647217	   -327.29171587	  -1012.87304662	      0.00000000	      0.00000000	      0.00000000	   1823.55362141	     -4.51959319	    -15.83150347	   -298.47216797	   -278.06285821	   -813.00108000	      0.00000000	      0.00000000	     -0.00000000	  -2421.42127930	      0.00000000	     -0.00000000	      0.00000000	      0.00000000	      0.00000000	      0.00000000	      0.00000000	      0.00000000	      0.00000000
      2.38000000	      0.00000000	     -0.00000000	      0.00000000	      0.00000000	      0.00000000	      0.00000000	      0.00000000	      0.00000000	      0.00000000	      4.20691252	     15.31132984	   -322.34231567	   -327.48854936	  -1013.10954836	      0.00000000	      0.00000000	      0.00000000	   1642.78126557	     -4.56464855	    -15.45629461	   -298.41867065	   -278.61118059	   -812.77459201	      0.00000000	      0.00000000	     -0.00000000	  -2502.55894618	      0.00000000	     -0.00000000	      0.00000000	      0.00000000	      0.00000000	      0.00000000	      0.00000000	      0.00000000	      0.00000000
      2.39000000	      0.00000000	     -0.00000000	      0.00000000	      0.00000000	      0.00000000	      0.00000000	      0.00000000	      0.00000000	      0.00000000	      4.45609522	     14.92712879	   -322.26791382	   -327.66163384	  -1012.06611629	      0.00000000	      0.00000000	      0.00000000	   1752.69826407	     -4.77048340	    -15.34723526	   -299.92126465	   -278.17192968	   -810.78732117	      0.00000000	      0.00000000	     -0.00000000	  -2462.51944349	      0.00000000	     -0.00000000	      0.00000000	      0.00000000	      0.00000000	      0.00000000	      0.00000000	      0.00000000	      0.00000000
      2.40000000	      0.00000000	     -0.00000000	      0.00000000	      0.00000000	      0.00000000	      0.00000000	      0.00000000	      0.00000000	      0.00000000	      4.60663080	     15.35885048	   -322.86276245	   -326.72876423	  -1012.43533852	      0.00000000	      0.00000000	      0.00000000	   1893.75439675	     -5.02917710	    -15.39519171	   -299.06155396	   -278.41118324	   -811.22042356	      0.00000000	      0.00000000	     -0.00000000	  -2207.71524670	      0.00000000	     -0.00000000	      0.00000000	      0.00000000	      0.00000000	      0.00000000	      0.00000000	      0.00000000	      0.00000000
      2.41000000	      0.00000000	     -0.00000000	      0.00000000	      0.00000000	      0.00000000	      0.00000000	      0.00000000	      0.00000000	      0.00000000	      4.46052551	     15.49436760	   -322.49737549	   -326.91127763	  -1013.06464329	      0.00000000	      0.00000000	      0.00000000	   1853.82643328	     -4.77660361	    -15.36797291	   -299.68054199	   -277.98953781	   -811.08038741	      0.00000000	      0.00000000	     -0.00000000	  -2512.56843066	      0.00000000	     -0.00000000	      0.00000000	      0.00000000	      0.00000000	      0.00000000	      0.00000000	      0.00000000	      0.00000000
